<svg width="24" height="24" viewBox="0 0 24 24" fill="none" xmlns="http://www.w3.org/2000/svg">
<g id="basil:stack-solid">
<path id="Vector" d="M13.039 3.582C12.439 3.269 11.616 3.264 11.012 3.576C8.43399 4.908 6.09699 6.434 4.05199 8.124C3.77799 8.35 3.59799 8.665 3.60099 9.026C3.60399 9.386 3.78899 9.697 4.06099 9.92C6.08999 11.58 8.42899 13.107 10.961 14.428C11.561 14.741 12.384 14.746 12.988 14.434C15.566 13.102 17.903 11.576 19.948 9.886C20.222 9.66 20.402 9.345 20.399 8.984C20.396 8.624 20.211 8.313 19.939 8.09C17.91 6.43 15.571 4.903 13.039 3.582Z" fill="#A9A9A9"/>
<path id="Vector_2" d="M20.958 13.731C21.0443 13.6802 21.1196 13.6127 21.1795 13.5323C21.2393 13.452 21.2824 13.3605 21.3062 13.2632C21.3301 13.1659 21.3343 13.0648 21.3184 12.9659C21.3026 12.867 21.2671 12.7723 21.2141 12.6873C21.161 12.6024 21.0915 12.5289 21.0096 12.4712C20.9277 12.4136 20.8351 12.3729 20.7372 12.3516C20.6393 12.3303 20.5382 12.3289 20.4397 12.3473C20.3413 12.3657 20.2475 12.4037 20.164 12.459L14.056 16.272C13.512 16.612 12.773 16.801 12 16.801C11.227 16.801 10.487 16.611 9.94299 16.272L3.90299 12.502C3.73418 12.3967 3.53046 12.3628 3.33664 12.4077C3.14282 12.4526 2.97478 12.5727 2.86949 12.7415C2.7642 12.9103 2.73028 13.114 2.7752 13.3078C2.82011 13.5017 2.94018 13.6697 3.10899 13.775L9.14899 17.545C9.97799 18.062 11.006 18.301 11.999 18.301C12.994 18.301 14.022 18.061 14.851 17.544L20.958 13.731Z" fill="#A9A9A9"/>
<path id="Vector_3" d="M20.958 17.486C21.0443 17.4352 21.1196 17.3677 21.1795 17.2873C21.2393 17.207 21.2824 17.1155 21.3062 17.0182C21.3301 16.9209 21.3343 16.8199 21.3184 16.7209C21.3026 16.622 21.2671 16.5273 21.2141 16.4423C21.161 16.3574 21.0915 16.2839 21.0096 16.2262C20.9277 16.1686 20.8351 16.1279 20.7372 16.1066C20.6393 16.0853 20.5382 16.0839 20.4397 16.1023C20.3413 16.1208 20.2475 16.1587 20.164 16.214L14.874 19.517C14.102 19.999 13.068 20.26 12 20.26C10.932 20.26 9.89799 20 9.12499 19.517L3.90299 16.257C3.81941 16.2048 3.72636 16.1696 3.62916 16.1533C3.53196 16.1371 3.43251 16.1402 3.33649 16.1624C3.24048 16.1845 3.14977 16.2254 3.06956 16.2827C2.98934 16.3399 2.92119 16.4124 2.86899 16.496C2.81679 16.5796 2.78157 16.6726 2.76533 16.7698C2.74909 16.867 2.75215 16.9665 2.77434 17.0625C2.79654 17.1585 2.83742 17.2492 2.89467 17.3294C2.95192 17.4096 3.02441 17.4778 3.10799 17.53L8.32999 20.79C9.38799 21.45 10.711 21.76 12 21.76C13.289 21.76 14.611 21.45 15.67 20.789L20.958 17.486Z" fill="#A9A9A9"/>
</g>
</svg>
