<svg width="45" height="45" viewBox="0 0 45 45" fill="none" xmlns="http://www.w3.org/2000/svg">
<g id="charm:menu-meatball">
<g id="Group">
<path id="Vector" d="M7.03125 24.6094C8.19623 24.6094 9.14062 23.665 9.14062 22.5C9.14062 21.335 8.19623 20.3906 7.03125 20.3906C5.86627 20.3906 4.92188 21.335 4.92188 22.5C4.92188 23.665 5.86627 24.6094 7.03125 24.6094Z" stroke="#B3B3B3" stroke-width="4.21875" stroke-linecap="round" stroke-linejoin="round"/>
<path id="Vector_2" d="M22.5 24.6094C23.665 24.6094 24.6094 23.665 24.6094 22.5C24.6094 21.335 23.665 20.3906 22.5 20.3906C21.335 20.3906 20.3906 21.335 20.3906 22.5C20.3906 23.665 21.335 24.6094 22.5 24.6094Z" stroke="#B3B3B3" stroke-width="4.21875" stroke-linecap="round" stroke-linejoin="round"/>
<path id="Vector_3" d="M37.9688 24.6094C39.1337 24.6094 40.0781 23.665 40.0781 22.5C40.0781 21.335 39.1337 20.3906 37.9688 20.3906C36.8038 20.3906 35.8594 21.335 35.8594 22.5C35.8594 23.665 36.8038 24.6094 37.9688 24.6094Z" stroke="#B3B3B3" stroke-width="4.21875" stroke-linecap="round" stroke-linejoin="round"/>
</g>
</g>
</svg>
