<svg width="32" height="32" viewBox="0 0 32 32" fill="none" xmlns="http://www.w3.org/2000/svg">
<g id="charm:menu-mini">
<g id="Group">
<path id="Vector" d="M5 17.5C5.82843 17.5 6.5 16.8284 6.5 16C6.5 15.1716 5.82843 14.5 5 14.5C4.17157 14.5 3.5 15.1716 3.5 16C3.5 16.8284 4.17157 17.5 5 17.5Z" stroke="#B3B3B3" stroke-width="3" stroke-linecap="round" stroke-linejoin="round"/>
<path id="Vector_2" d="M16 17.5C16.8284 17.5 17.5 16.8284 17.5 16C17.5 15.1716 16.8284 14.5 16 14.5C15.1716 14.5 14.5 15.1716 14.5 16C14.5 16.8284 15.1716 17.5 16 17.5Z" stroke="#B3B3B3" stroke-width="3" stroke-linecap="round" stroke-linejoin="round"/>
<path id="Vector_3" d="M27 17.5C27.8284 17.5 28.5 16.8284 28.5 16C28.5 15.1716 27.8284 14.5 27 14.5C26.1716 14.5 25.5 15.1716 25.5 16C25.5 16.8284 26.1716 17.5 27 17.5Z" stroke="#B3B3B3" stroke-width="3" stroke-linecap="round" stroke-linejoin="round"/>
</g>
</g>
</svg>
