<svg width="72" height="72" viewBox="0 0 72 72" fill="none" xmlns="http://www.w3.org/2000/svg">
<g id="hugeicons:border-none-02">
<path id="Vector" d="M18.8999 8.25294C15.7799 8.83494 13.4879 9.86094 11.6729 11.6729C9.86094 13.4879 8.83494 15.7829 8.25294 18.8999M53.0999 8.25294C56.2199 8.83494 58.5119 9.86094 60.3269 11.6729C62.1389 13.4879 63.1649 15.7829 63.7469 18.8999M41.6999 7.51494C39.9499 7.50294 38.0499 7.49794 35.9999 7.49994C33.9499 7.49794 32.0499 7.50294 30.2999 7.51494M64.4849 30.2999C64.4969 32.0499 64.5019 33.9499 64.4999 35.9999C64.5019 38.0499 64.4969 39.9499 64.4849 41.6999M7.51494 30.2999C7.50294 32.0499 7.49794 33.9499 7.49994 35.9999C7.49794 38.0499 7.50294 39.9499 7.51494 41.6999M8.25294 53.0999C8.83494 56.2199 9.86094 58.5119 11.6729 60.3269C13.4879 62.1389 15.7829 63.1649 18.8999 63.7469M63.7469 53.0999C63.1649 56.2199 62.1389 58.5119 60.3269 60.3269C58.5119 62.1389 56.2169 63.1649 53.0999 63.7469M41.6999 64.4849C39.9499 64.4969 38.0499 64.5019 35.9999 64.4999C33.9519 64.5019 32.0519 64.4969 30.2999 64.4849" stroke="#D9D9D9" stroke-width="4.5" stroke-linecap="round" stroke-linejoin="round"/>
</g>
</svg>
