<svg width="45" height="45" viewBox="0 0 45 45" fill="none" xmlns="http://www.w3.org/2000/svg">
<g id="material-symbols:home-rounded">
<path id="Vector" d="M7.5 35.625V18.75C7.5 18.1562 7.63312 17.5938 7.89937 17.0625C8.16562 16.5313 8.5325 16.0937 9 15.75L20.25 7.3125C20.9062 6.8125 21.6562 6.5625 22.5 6.5625C23.3438 6.5625 24.0938 6.8125 24.75 7.3125L36 15.75C36.4688 16.0937 36.8363 16.5313 37.1025 17.0625C37.3687 17.5938 37.5012 18.1562 37.5 18.75V35.625C37.5 36.6562 37.1325 37.5394 36.3975 38.2744C35.6625 39.0094 34.78 39.3763 33.75 39.375H28.125C27.5938 39.375 27.1488 39.195 26.79 38.835C26.4312 38.475 26.2512 38.03 26.25 37.5V28.125C26.25 27.5938 26.07 27.1488 25.71 26.79C25.35 26.4312 24.905 26.2512 24.375 26.25H20.625C20.0938 26.25 19.6488 26.43 19.29 26.79C18.9313 27.15 18.7513 27.595 18.75 28.125V37.5C18.75 38.0312 18.57 38.4769 18.21 38.8369C17.85 39.1969 17.405 39.3763 16.875 39.375H11.25C10.2188 39.375 9.33625 39.0081 8.6025 38.2744C7.86875 37.5406 7.50125 36.6575 7.5 35.625Z" fill="#5FB7FF"/>
</g>
</svg>
