<svg width="24" height="22" viewBox="0 0 24 22" fill="none" xmlns="http://www.w3.org/2000/svg">
<g id="uil:calender">
<path id="Vector" d="M18.246 3.66665H16.3254V2.74998C16.3254 2.50686 16.2242 2.27371 16.0441 2.1018C15.864 1.92989 15.6198 1.83331 15.3651 1.83331C15.1104 1.83331 14.8661 1.92989 14.686 2.1018C14.5059 2.27371 14.4048 2.50686 14.4048 2.74998V3.66665H8.64285V2.74998C8.64285 2.50686 8.54167 2.27371 8.36158 2.1018C8.18148 1.92989 7.93722 1.83331 7.68253 1.83331C7.42784 1.83331 7.18358 1.92989 7.00348 2.1018C6.82339 2.27371 6.72221 2.50686 6.72221 2.74998V3.66665H4.80158C4.0375 3.66665 3.30472 3.95638 2.76444 4.4721C2.22415 4.98783 1.92062 5.6873 1.92062 6.41665V17.4166C1.92062 18.146 2.22415 18.8455 2.76444 19.3612C3.30472 19.8769 4.0375 20.1666 4.80158 20.1666H18.246C19.0101 20.1666 19.7429 19.8769 20.2832 19.3612C20.8234 18.8455 21.127 18.146 21.127 17.4166V6.41665C21.127 5.6873 20.8234 4.98783 20.2832 4.4721C19.7429 3.95638 19.0101 3.66665 18.246 3.66665ZM19.2063 17.4166C19.2063 17.6598 19.1052 17.8929 18.9251 18.0648C18.745 18.2367 18.5007 18.3333 18.246 18.3333H4.80158C4.54688 18.3333 4.30262 18.2367 4.12253 18.0648C3.94243 17.8929 3.84126 17.6598 3.84126 17.4166V11H19.2063V17.4166ZM19.2063 9.16665H3.84126V6.41665C3.84126 6.17353 3.94243 5.94037 4.12253 5.76847C4.30262 5.59656 4.54688 5.49998 4.80158 5.49998H6.72221V6.41665C6.72221 6.65976 6.82339 6.89292 7.00348 7.06483C7.18358 7.23674 7.42784 7.33331 7.68253 7.33331C7.93722 7.33331 8.18148 7.23674 8.36158 7.06483C8.54167 6.89292 8.64285 6.65976 8.64285 6.41665V5.49998H14.4048V6.41665C14.4048 6.65976 14.5059 6.89292 14.686 7.06483C14.8661 7.23674 15.1104 7.33331 15.3651 7.33331C15.6198 7.33331 15.864 7.23674 16.0441 7.06483C16.2242 6.89292 16.3254 6.65976 16.3254 6.41665V5.49998H18.246C18.5007 5.49998 18.745 5.59656 18.9251 5.76847C19.1052 5.94037 19.2063 6.17353 19.2063 6.41665V9.16665Z" fill="#A9A9A9"/>
</g>
</svg>
